<?xml version="1.0" encoding="UTF-8" standalone="no"?>
<!-- Created with Inkscape (http://www.inkscape.org/) -->
<svg xmlns:dc="http://purl.org/dc/elements/1.1/" xmlns:cc="http://creativecommons.org/ns#" xmlns:rdf="http://www.w3.org/1999/02/22-rdf-syntax-ns#" xmlns:svg="http://www.w3.org/2000/svg" xmlns="http://www.w3.org/2000/svg" xmlns:sodipodi="http://sodipodi.sourceforge.net/DTD/sodipodi-0.dtd" xmlns:inkscape="http://www.inkscape.org/namespaces/inkscape" width="300" height="300" id="svg2" sodipodi:version="0.32" inkscape:version="0.46" version="1.0" sodipodi:docname="ACP 3.svg" inkscape:output_extension="org.inkscape.output.svg.inkscape">
  <defs id="defs4">
    <inkscape:perspective sodipodi:type="inkscape:persp3d" inkscape:vp_x="0 : 526.18109 : 1" inkscape:vp_y="0 : 1000 : 0" inkscape:vp_z="744.09448 : 526.18109 : 1" inkscape:persp3d-origin="372.04724 : 350.78739 : 1" id="perspective10"/>
    <inkscape:perspective id="perspective2390" inkscape:persp3d-origin="372.04724 : 350.78739 : 1" inkscape:vp_z="744.09448 : 526.18109 : 1" inkscape:vp_y="0 : 1000 : 0" inkscape:vp_x="0 : 526.18109 : 1" sodipodi:type="inkscape:persp3d"/>
    <inkscape:perspective id="perspective3177" inkscape:persp3d-origin="372.04724 : 350.78739 : 1" inkscape:vp_z="744.09448 : 526.18109 : 1" inkscape:vp_y="0 : 1000 : 0" inkscape:vp_x="0 : 526.18109 : 1" sodipodi:type="inkscape:persp3d"/>
  </defs>
  <sodipodi:namedview id="base" pagecolor="#ffffff" bordercolor="#666666" borderopacity="1.0" gridtolerance="10000" guidetolerance="10" objecttolerance="10" inkscape:pageopacity="0.0" inkscape:pageshadow="2" inkscape:zoom="1.4" inkscape:cx="241.81989" inkscape:cy="171.38773" inkscape:document-units="px" inkscape:current-layer="layer1" showgrid="false" inkscape:window-width="1280" inkscape:window-height="968" inkscape:window-x="-4" inkscape:window-y="-4"/>
  <metadata id="metadata7">
    <rdf:RDF>
      <cc:Work rdf:about="">
        <dc:format>image/svg+xml</dc:format>
        <dc:type rdf:resource="http://purl.org/dc/dcmitype/StillImage"/>
      </cc:Work>
    </rdf:RDF>
  </metadata>
  <g inkscape:label="Layer 1" inkscape:groupmode="layer" id="layer1" transform="translate(-225.71431,-750.93359)">
    <path style="fill:none;fill-rule:evenodd;stroke:#000000;stroke-width:2;stroke-linecap:round;stroke-linejoin:miter;stroke-opacity:1;stroke-miterlimit:4;stroke-dasharray:none" d="M 153.60632,26.058599 L 153.60632,282.67181" id="path3183" transform="translate(225.71431,750.93359)" sodipodi:nodetypes="cc"/>
    <path style="fill:none;fill-rule:evenodd;stroke:#000000;stroke-width:2;stroke-linecap:round;stroke-linejoin:miter;stroke-miterlimit:4;stroke-dasharray:none;stroke-opacity:1" d="M 374.80651,1033.4926 L 379.32063,1033.4926" id="path3191"/>
    <path id="path3193" d="M 374.80651,969.47418 L 379.32063,969.47418" style="fill:none;fill-rule:evenodd;stroke:#000000;stroke-width:2;stroke-linecap:round;stroke-linejoin:miter;stroke-miterlimit:4;stroke-dasharray:none;stroke-opacity:1"/>
    <path id="path3195" d="M 374.80651,841.54784 L 379.32063,841.54784" style="fill:none;fill-rule:evenodd;stroke:#000000;stroke-width:2;stroke-linecap:round;stroke-linejoin:miter;stroke-miterlimit:4;stroke-dasharray:none;stroke-opacity:1"/>
    <path style="fill:none;fill-rule:evenodd;stroke:#000000;stroke-width:2;stroke-linecap:round;stroke-linejoin:miter;stroke-miterlimit:4;stroke-dasharray:none;stroke-opacity:1" d="M 374.80651,776.89807 L 379.32063,776.89807" id="path3197"/>
    <path sodipodi:nodetypes="cc" id="path3199" d="M 250.77727,905.56718 L 507.39048,905.56718" style="fill:none;fill-rule:evenodd;stroke:#000000;stroke-width:2;stroke-linecap:round;stroke-linejoin:miter;stroke-miterlimit:4;stroke-dasharray:none;stroke-opacity:1"/>
    <path id="path3201" d="M 507.27768,910.08129 L 507.27768,905.56717" style="fill:none;fill-rule:evenodd;stroke:#000000;stroke-width:2;stroke-linecap:round;stroke-linejoin:miter;stroke-miterlimit:4;stroke-dasharray:none;stroke-opacity:1"/>
    <path style="fill:none;fill-rule:evenodd;stroke:#000000;stroke-width:2;stroke-linecap:round;stroke-linejoin:miter;stroke-miterlimit:4;stroke-dasharray:none;stroke-opacity:1" d="M 443.25926,910.08129 L 443.25926,905.56717" id="path3203"/>
    <path style="fill:none;fill-rule:evenodd;stroke:#000000;stroke-width:2;stroke-linecap:round;stroke-linejoin:miter;stroke-miterlimit:4;stroke-dasharray:none;stroke-opacity:1" d="M 315.33292,910.08129 L 315.33292,905.56717" id="path3205"/>
    <path id="path3207" d="M 250.74629,910.08129 L 250.74629,905.56717" style="fill:none;fill-rule:evenodd;stroke:#000000;stroke-width:2;stroke-linecap:round;stroke-linejoin:miter;stroke-miterlimit:4;stroke-dasharray:none;stroke-opacity:1"/>
    <path sodipodi:type="arc" style="opacity:1;fill:#000080;fill-opacity:1;fill-rule:evenodd;stroke:none;stroke-width:2;stroke-linecap:round;stroke-linejoin:miter;stroke-miterlimit:4;stroke-dasharray:none;stroke-dashoffset:4.4;stroke-opacity:1" id="path3510" sodipodi:cx="87.914841" sodipodi:cy="108.67079" sodipodi:rx="2.6832178" sodipodi:ry="2.6832178" d="M 90.598058,108.67079 A 2.6832178,2.6832178 0 1 1 85.231623,108.67079 A 2.6832178,2.6832178 0 1 1 90.598058,108.67079 z" transform="matrix(0.6244305,0,0,0.6244305,201.56859,722.60858)"/>
    <path sodipodi:type="arc" style="opacity:1;fill:#000080;fill-opacity:1;fill-rule:evenodd;stroke:none;stroke-width:2;stroke-linecap:round;stroke-linejoin:miter;stroke-miterlimit:4;stroke-dasharray:none;stroke-dashoffset:4.4;stroke-opacity:1" id="path3605" sodipodi:cx="87.914841" sodipodi:cy="108.67079" sodipodi:rx="2.6832178" sodipodi:ry="2.6832178" d="M 90.598058,108.67079 A 2.6832178,2.6832178 0 1 1 85.231623,108.67079 A 2.6832178,2.6832178 0 1 1 90.598058,108.67079 z" transform="matrix(0.6244305,0,0,0.6244305,238.26964,716.22579)"/>
    <path sodipodi:type="arc" style="opacity:1;fill:#000080;fill-opacity:1;fill-rule:evenodd;stroke:none;stroke-width:2;stroke-linecap:round;stroke-linejoin:miter;stroke-miterlimit:4;stroke-dasharray:none;stroke-dashoffset:4.4;stroke-opacity:1" id="path3607" sodipodi:cx="87.914841" sodipodi:cy="108.67079" sodipodi:rx="2.6832178" sodipodi:ry="2.6832178" d="M 90.598058,108.67079 A 2.6832178,2.6832178 0 1 1 85.231623,108.67079 A 2.6832178,2.6832178 0 1 1 90.598058,108.67079 z" transform="matrix(0.6244305,0,0,0.6244305,307.68251,716.22579)"/>
    <path sodipodi:type="arc" style="opacity:1;fill:#000080;fill-opacity:1;fill-rule:evenodd;stroke:none;stroke-width:2;stroke-linecap:round;stroke-linejoin:miter;stroke-miterlimit:4;stroke-dasharray:none;stroke-dashoffset:4.4;stroke-opacity:1" id="path3609" sodipodi:cx="87.914841" sodipodi:cy="108.67079" sodipodi:rx="2.6832178" sodipodi:ry="2.6832178" d="M 90.598058,108.67079 A 2.6832178,2.6832178 0 1 1 85.231623,108.67079 A 2.6832178,2.6832178 0 1 1 90.598058,108.67079 z" transform="matrix(0.6244305,0,0,0.6244305,301.29971,736.96987)"/>
    <path sodipodi:type="arc" style="opacity:1;fill:#000080;fill-opacity:1;fill-rule:evenodd;stroke:none;stroke-width:2;stroke-linecap:round;stroke-linejoin:miter;stroke-miterlimit:4;stroke-dasharray:none;stroke-dashoffset:4.4;stroke-opacity:1" id="path3611" sodipodi:cx="87.914841" sodipodi:cy="108.67079" sodipodi:rx="2.6832178" sodipodi:ry="2.6832178" d="M 90.598058,108.67079 A 2.6832178,2.6832178 0 1 1 85.231623,108.67079 A 2.6832178,2.6832178 0 1 1 90.598058,108.67079 z" transform="matrix(0.6244305,0,0,0.6244305,266.19436,773.67092)"/>
    <path sodipodi:type="arc" style="opacity:1;fill:#000080;fill-opacity:1;fill-rule:evenodd;stroke:none;stroke-width:2;stroke-linecap:round;stroke-linejoin:miter;stroke-miterlimit:4;stroke-dasharray:none;stroke-dashoffset:4.4;stroke-opacity:1" id="path3613" sodipodi:cx="87.914841" sodipodi:cy="108.67079" sodipodi:rx="2.6832178" sodipodi:ry="2.6832178" d="M 90.598058,108.67079 A 2.6832178,2.6832178 0 1 1 85.231623,108.67079 A 2.6832178,2.6832178 0 1 1 90.598058,108.67079 z" transform="matrix(0.6244305,0,0,0.6244305,203.96213,781.64941)"/>
    <path sodipodi:type="arc" style="opacity:1;fill:#000080;fill-opacity:1;fill-rule:evenodd;stroke:none;stroke-width:2;stroke-linecap:round;stroke-linejoin:miter;stroke-miterlimit:4;stroke-dasharray:none;stroke-dashoffset:4.4;stroke-opacity:1" id="path3615" sodipodi:cx="87.914841" sodipodi:cy="108.67079" sodipodi:rx="2.6832178" sodipodi:ry="2.6832178" d="M 90.598058,108.67079 A 2.6832178,2.6832178 0 1 1 85.231623,108.67079 A 2.6832178,2.6832178 0 1 1 90.598058,108.67079 z" transform="matrix(0.6244305,0,0,0.6244305,211.14277,779.25586)"/>
    <path sodipodi:type="arc" style="opacity:1;fill:#000080;fill-opacity:1;fill-rule:evenodd;stroke:none;stroke-width:2;stroke-linecap:round;stroke-linejoin:miter;stroke-miterlimit:4;stroke-dasharray:none;stroke-dashoffset:4.4;stroke-opacity:1" id="path3617" sodipodi:cx="87.914841" sodipodi:cy="108.67079" sodipodi:rx="2.6832178" sodipodi:ry="2.6832178" d="M 90.598058,108.67079 A 2.6832178,2.6832178 0 1 1 85.231623,108.67079 A 2.6832178,2.6832178 0 1 1 90.598058,108.67079 z" transform="matrix(0.6244305,0,0,0.6244305,302.89541,843.08379)"/>
    <path sodipodi:type="arc" style="opacity:1;fill:#000080;fill-opacity:1;fill-rule:evenodd;stroke:none;stroke-width:2;stroke-linecap:round;stroke-linejoin:miter;stroke-miterlimit:4;stroke-dasharray:none;stroke-dashoffset:4.4;stroke-opacity:1" id="path3619" sodipodi:cx="87.914841" sodipodi:cy="108.67079" sodipodi:rx="2.6832178" sodipodi:ry="2.6832178" d="M 90.598058,108.67079 A 2.6832178,2.6832178 0 1 1 85.231623,108.67079 A 2.6832178,2.6832178 0 1 1 90.598058,108.67079 z" transform="matrix(0.6244305,0,0,0.6244305,243.85459,894.94398)"/>
    <path sodipodi:type="arc" style="opacity:1;fill:#000080;fill-opacity:1;fill-rule:evenodd;stroke:none;stroke-width:2;stroke-linecap:round;stroke-linejoin:miter;stroke-miterlimit:4;stroke-dasharray:none;stroke-dashoffset:4.4;stroke-opacity:1" id="path3621" sodipodi:cx="87.914841" sodipodi:cy="108.67079" sodipodi:rx="2.6832178" sodipodi:ry="2.6832178" d="M 90.598058,108.67079 A 2.6832178,2.6832178 0 1 1 85.231623,108.67079 A 2.6832178,2.6832178 0 1 1 90.598058,108.67079 z" transform="matrix(0.6244305,0,0,0.6244305,245.45028,946.00631)"/>
    <path sodipodi:type="arc" style="opacity:1;fill:#000080;fill-opacity:1;fill-rule:evenodd;stroke:none;stroke-width:2;stroke-linecap:round;stroke-linejoin:miter;stroke-miterlimit:4;stroke-dasharray:none;stroke-dashoffset:4.4;stroke-opacity:1" id="path3623" sodipodi:cx="87.914841" sodipodi:cy="108.67079" sodipodi:rx="2.6832178" sodipodi:ry="2.6832178" d="M 90.598058,108.67079 A 2.6832178,2.6832178 0 1 1 85.231623,108.67079 A 2.6832178,2.6832178 0 1 1 90.598058,108.67079 z" transform="matrix(0.6244305,0,0,0.6244305,307.68251,892.55043)"/>
    <path sodipodi:type="arc" style="opacity:1;fill:#000080;fill-opacity:1;fill-rule:evenodd;stroke:none;stroke-width:2;stroke-linecap:round;stroke-linejoin:miter;stroke-miterlimit:4;stroke-dasharray:none;stroke-dashoffset:4.4;stroke-opacity:1" id="path3625" sodipodi:cx="87.914841" sodipodi:cy="108.67079" sodipodi:rx="2.6832178" sodipodi:ry="2.6832178" d="M 90.598058,108.67079 A 2.6832178,2.6832178 0 1 1 85.231623,108.67079 A 2.6832178,2.6832178 0 1 1 90.598058,108.67079 z" transform="matrix(0.6244305,0,0,0.6244305,251.03523,882.17839)"/>
    <path sodipodi:type="arc" style="opacity:1;fill:#000080;fill-opacity:1;fill-rule:evenodd;stroke:none;stroke-width:2;stroke-linecap:round;stroke-linejoin:miter;stroke-miterlimit:4;stroke-dasharray:none;stroke-dashoffset:4.4;stroke-opacity:1" id="path3627" sodipodi:cx="87.914841" sodipodi:cy="108.67079" sodipodi:rx="2.6832178" sodipodi:ry="2.6832178" d="M 90.598058,108.67079 A 2.6832178,2.6832178 0 1 1 85.231623,108.67079 A 2.6832178,2.6832178 0 1 1 90.598058,108.67079 z" transform="matrix(0.6244305,0,0,0.6244305,290.12983,865.42356)"/>
    <path sodipodi:type="arc" style="opacity:1;fill:#000080;fill-opacity:1;fill-rule:evenodd;stroke:none;stroke-width:2;stroke-linecap:round;stroke-linejoin:miter;stroke-miterlimit:4;stroke-dasharray:none;stroke-dashoffset:4.4;stroke-opacity:1" id="path3629" sodipodi:cx="87.914841" sodipodi:cy="108.67079" sodipodi:rx="2.6832178" sodipodi:ry="2.6832178" d="M 90.598058,108.67079 A 2.6832178,2.6832178 0 1 1 85.231623,108.67079 A 2.6832178,2.6832178 0 1 1 90.598058,108.67079 z" transform="matrix(0.6244305,0,0,0.6244305,369.11689,865.42356)"/>
    <path sodipodi:type="arc" style="opacity:1;fill:#000080;fill-opacity:1;fill-rule:evenodd;stroke:none;stroke-width:2;stroke-linecap:round;stroke-linejoin:miter;stroke-miterlimit:4;stroke-dasharray:none;stroke-dashoffset:4.4;stroke-opacity:1" id="path3631" sodipodi:cx="87.914841" sodipodi:cy="108.67079" sodipodi:rx="2.6832178" sodipodi:ry="2.6832178" d="M 90.598058,108.67079 A 2.6832178,2.6832178 0 1 1 85.231623,108.67079 A 2.6832178,2.6832178 0 1 1 90.598058,108.67079 z" transform="matrix(0.6244305,0,0,0.6244305,301.29971,919.6773)"/>
    <path sodipodi:type="arc" style="opacity:1;fill:#000080;fill-opacity:1;fill-rule:evenodd;stroke:none;stroke-width:2;stroke-linecap:round;stroke-linejoin:miter;stroke-miterlimit:4;stroke-dasharray:none;stroke-dashoffset:4.4;stroke-opacity:1" id="path3633" sodipodi:cx="87.914841" sodipodi:cy="108.67079" sodipodi:rx="2.6832178" sodipodi:ry="2.6832178" d="M 90.598058,108.67079 A 2.6832178,2.6832178 0 1 1 85.231623,108.67079 A 2.6832178,2.6832178 0 1 1 90.598058,108.67079 z" transform="matrix(0.6244305,0,0,0.6244305,283.74703,873.40205)"/>
    <path sodipodi:type="arc" style="opacity:1;fill:#000080;fill-opacity:1;fill-rule:evenodd;stroke:none;stroke-width:2;stroke-linecap:round;stroke-linejoin:miter;stroke-miterlimit:4;stroke-dasharray:none;stroke-dashoffset:4.4;stroke-opacity:1" id="path3635" sodipodi:cx="87.914841" sodipodi:cy="108.67079" sodipodi:rx="2.6832178" sodipodi:ry="2.6832178" d="M 90.598058,108.67079 A 2.6832178,2.6832178 0 1 1 85.231623,108.67079 A 2.6832178,2.6832178 0 1 1 90.598058,108.67079 z" transform="matrix(0.6244305,0,0,0.6244305,416.18997,820.74402)"/>
    <path sodipodi:type="arc" style="opacity:1;fill:#000080;fill-opacity:1;fill-rule:evenodd;stroke:none;stroke-width:2;stroke-linecap:round;stroke-linejoin:miter;stroke-miterlimit:4;stroke-dasharray:none;stroke-dashoffset:4.4;stroke-opacity:1" id="path3637" sodipodi:cx="87.914841" sodipodi:cy="108.67079" sodipodi:rx="2.6832178" sodipodi:ry="2.6832178" d="M 90.598058,108.67079 A 2.6832178,2.6832178 0 1 1 85.231623,108.67079 A 2.6832178,2.6832178 0 1 1 90.598058,108.67079 z" transform="matrix(0.6244305,0,0,0.6244305,377.09537,755.3204)"/>
    <path sodipodi:type="arc" style="opacity:1;fill:#000080;fill-opacity:1;fill-rule:evenodd;stroke:none;stroke-width:2;stroke-linecap:round;stroke-linejoin:miter;stroke-miterlimit:4;stroke-dasharray:none;stroke-dashoffset:4.4;stroke-opacity:1" id="path3639" sodipodi:cx="87.914841" sodipodi:cy="108.67079" sodipodi:rx="2.6832178" sodipodi:ry="2.6832178" d="M 90.598058,108.67079 A 2.6832178,2.6832178 0 1 1 85.231623,108.67079 A 2.6832178,2.6832178 0 1 1 90.598058,108.67079 z" transform="matrix(0.6244305,0,0,0.6244305,425.76416,789.6279)"/>
    <path sodipodi:type="arc" style="opacity:1;fill:#000080;fill-opacity:1;fill-rule:evenodd;stroke:none;stroke-width:2;stroke-linecap:round;stroke-linejoin:miter;stroke-miterlimit:4;stroke-dasharray:none;stroke-dashoffset:4.4;stroke-opacity:1" id="path3641" sodipodi:cx="87.914841" sodipodi:cy="108.67079" sodipodi:rx="2.6832178" sodipodi:ry="2.6832178" d="M 90.598058,108.67079 A 2.6832178,2.6832178 0 1 1 85.231623,108.67079 A 2.6832178,2.6832178 0 1 1 90.598058,108.67079 z" transform="matrix(0.6244305,0,0,0.6244305,420.97707,901.32676)"/>
    <path sodipodi:type="arc" style="opacity:1;fill:#000080;fill-opacity:1;fill-rule:evenodd;stroke:none;stroke-width:2;stroke-linecap:round;stroke-linejoin:miter;stroke-miterlimit:4;stroke-dasharray:none;stroke-dashoffset:4.4;stroke-opacity:1" id="path3643" sodipodi:cx="87.914841" sodipodi:cy="108.67079" sodipodi:rx="2.6832178" sodipodi:ry="2.6832178" d="M 90.598058,108.67079 A 2.6832178,2.6832178 0 1 1 85.231623,108.67079 A 2.6832178,2.6832178 0 1 1 90.598058,108.67079 z" transform="matrix(0.6244305,0,0,0.6244305,368.31903,908.50741)"/>
    <path sodipodi:type="arc" style="opacity:1;fill:#000080;fill-opacity:1;fill-rule:evenodd;stroke:none;stroke-width:2;stroke-linecap:round;stroke-linejoin:miter;stroke-miterlimit:4;stroke-dasharray:none;stroke-dashoffset:4.4;stroke-opacity:1" id="path3645" sodipodi:cx="87.914841" sodipodi:cy="108.67079" sodipodi:rx="2.6832178" sodipodi:ry="2.6832178" d="M 90.598058,108.67079 A 2.6832178,2.6832178 0 1 1 85.231623,108.67079 A 2.6832178,2.6832178 0 1 1 90.598058,108.67079 z" transform="matrix(0.6244305,0,0,0.6244305,424.96632,797.60639)"/>
    <path sodipodi:type="arc" style="opacity:1;fill:#000080;fill-opacity:1;fill-rule:evenodd;stroke:none;stroke-width:2;stroke-linecap:round;stroke-linejoin:miter;stroke-miterlimit:4;stroke-dasharray:none;stroke-dashoffset:4.4;stroke-opacity:1" id="path3647" sodipodi:cx="87.914841" sodipodi:cy="108.67079" sodipodi:rx="2.6832178" sodipodi:ry="2.6832178" d="M 90.598058,108.67079 A 2.6832178,2.6832178 0 1 1 85.231623,108.67079 A 2.6832178,2.6832178 0 1 1 90.598058,108.67079 z" transform="matrix(0.6244305,0,0,0.6244305,371.51043,772.07522)"/>
    <path sodipodi:type="arc" style="opacity:1;fill:#000080;fill-opacity:1;fill-rule:evenodd;stroke:none;stroke-width:2;stroke-linecap:round;stroke-linejoin:miter;stroke-miterlimit:4;stroke-dasharray:none;stroke-dashoffset:4.4;stroke-opacity:1" id="path3649" sodipodi:cx="87.914841" sodipodi:cy="108.67079" sodipodi:rx="2.6832178" sodipodi:ry="2.6832178" d="M 90.598058,108.67079 A 2.6832178,2.6832178 0 1 1 85.231623,108.67079 A 2.6832178,2.6832178 0 1 1 90.598058,108.67079 z" transform="matrix(0.6244305,0,0,0.6244305,346.77711,885.36979)"/>
    <path sodipodi:type="arc" style="opacity:1;fill:#000080;fill-opacity:1;fill-rule:evenodd;stroke:none;stroke-width:2;stroke-linecap:round;stroke-linejoin:miter;stroke-miterlimit:4;stroke-dasharray:none;stroke-dashoffset:4.4;stroke-opacity:1" id="path3651" sodipodi:cx="87.914841" sodipodi:cy="108.67079" sodipodi:rx="2.6832178" sodipodi:ry="2.6832178" d="M 90.598058,108.67079 A 2.6832178,2.6832178 0 1 1 85.231623,108.67079 A 2.6832178,2.6832178 0 1 1 90.598058,108.67079 z" transform="matrix(0.6244305,0,0,0.6244305,266.9922,902.12462)"/>
    <path sodipodi:type="arc" style="opacity:1;fill:#000080;fill-opacity:1;fill-rule:evenodd;stroke:none;stroke-width:2;stroke-linecap:round;stroke-linejoin:miter;stroke-miterlimit:4;stroke-dasharray:none;stroke-dashoffset:4.4;stroke-opacity:1" id="path3653" sodipodi:cx="87.914841" sodipodi:cy="108.67079" sodipodi:rx="2.6832178" sodipodi:ry="2.6832178" d="M 90.598058,108.67079 A 2.6832178,2.6832178 0 1 1 85.231623,108.67079 A 2.6832178,2.6832178 0 1 1 90.598058,108.67079 z" transform="matrix(0.6244305,0,0,0.6244305,238.26964,924.46439)"/>
    <path sodipodi:type="arc" style="opacity:1;fill:#000080;fill-opacity:1;fill-rule:evenodd;stroke:none;stroke-width:2;stroke-linecap:round;stroke-linejoin:miter;stroke-miterlimit:4;stroke-dasharray:none;stroke-dashoffset:4.4;stroke-opacity:1" id="path3655" sodipodi:cx="87.914841" sodipodi:cy="108.67079" sodipodi:rx="2.6832178" sodipodi:ry="2.6832178" d="M 90.598058,108.67079 A 2.6832178,2.6832178 0 1 1 85.231623,108.67079 A 2.6832178,2.6832178 0 1 1 90.598058,108.67079 z" transform="matrix(0.6244305,0,0,0.6244305,196.78149,851.06227)"/>
    <path sodipodi:type="arc" style="opacity:1;fill:#000080;fill-opacity:1;fill-rule:evenodd;stroke:none;stroke-width:2;stroke-linecap:round;stroke-linejoin:miter;stroke-miterlimit:4;stroke-dasharray:none;stroke-dashoffset:4.4;stroke-opacity:1" id="path3657" sodipodi:cx="87.914841" sodipodi:cy="108.67079" sodipodi:rx="2.6832178" sodipodi:ry="2.6832178" d="M 90.598058,108.67079 A 2.6832178,2.6832178 0 1 1 85.231623,108.67079 A 2.6832178,2.6832178 0 1 1 90.598058,108.67079 z" transform="matrix(0.6244305,0,0,0.6244305,210.34493,860.63646)"/>
    <path sodipodi:type="arc" style="opacity:1;fill:#000080;fill-opacity:1;fill-rule:evenodd;stroke:none;stroke-width:2;stroke-linecap:round;stroke-linejoin:miter;stroke-miterlimit:4;stroke-dasharray:none;stroke-dashoffset:4.4;stroke-opacity:1" id="path3659" sodipodi:cx="87.914841" sodipodi:cy="108.67079" sodipodi:rx="2.6832178" sodipodi:ry="2.6832178" d="M 90.598058,108.67079 A 2.6832178,2.6832178 0 1 1 85.231623,108.67079 A 2.6832178,2.6832178 0 1 1 90.598058,108.67079 z" transform="matrix(0.6244305,0,0,0.6244305,204.75998,907.70956)"/>
    <path sodipodi:type="arc" style="opacity:1;fill:#000080;fill-opacity:1;fill-rule:evenodd;stroke:none;stroke-width:2;stroke-linecap:round;stroke-linejoin:miter;stroke-miterlimit:4;stroke-dasharray:none;stroke-dashoffset:4.4;stroke-opacity:1" id="path3661" sodipodi:cx="87.914841" sodipodi:cy="108.67079" sodipodi:rx="2.6832178" sodipodi:ry="2.6832178" d="M 90.598058,108.67079 A 2.6832178,2.6832178 0 1 1 85.231623,108.67079 A 2.6832178,2.6832178 0 1 1 90.598058,108.67079 z" transform="matrix(0.6244305,0,0,0.6244305,197.57934,869.41281)"/>
    <path sodipodi:type="arc" style="opacity:1;fill:#000080;fill-opacity:1;fill-rule:evenodd;stroke:none;stroke-width:2;stroke-linecap:round;stroke-linejoin:miter;stroke-miterlimit:4;stroke-dasharray:none;stroke-dashoffset:4.4;stroke-opacity:1" id="path3663" sodipodi:cx="87.914841" sodipodi:cy="108.67079" sodipodi:rx="2.6832178" sodipodi:ry="2.6832178" d="M 90.598058,108.67079 A 2.6832178,2.6832178 0 1 1 85.231623,108.67079 A 2.6832178,2.6832178 0 1 1 90.598058,108.67079 z" transform="matrix(0.6244305,0,0,0.6244305,295.71477,769.68167)"/>
    <path sodipodi:type="arc" style="opacity:1;fill:#000080;fill-opacity:1;fill-rule:evenodd;stroke:none;stroke-width:2;stroke-linecap:round;stroke-linejoin:miter;stroke-miterlimit:4;stroke-dasharray:none;stroke-dashoffset:4.4;stroke-opacity:1" id="path3665" sodipodi:cx="87.914841" sodipodi:cy="108.67079" sodipodi:rx="2.6832178" sodipodi:ry="2.6832178" d="M 90.598058,108.67079 A 2.6832178,2.6832178 0 1 1 85.231623,108.67079 A 2.6832178,2.6832178 0 1 1 90.598058,108.67079 z" transform="matrix(0.6244305,0,0,0.6244305,279.7578,857.44507)"/>
    <path sodipodi:type="arc" style="opacity:1;fill:#000080;fill-opacity:1;fill-rule:evenodd;stroke:none;stroke-width:2;stroke-linecap:round;stroke-linejoin:miter;stroke-miterlimit:4;stroke-dasharray:none;stroke-dashoffset:4.4;stroke-opacity:1" id="path3667" sodipodi:cx="87.914841" sodipodi:cy="108.67079" sodipodi:rx="2.6832178" sodipodi:ry="2.6832178" d="M 90.598058,108.67079 A 2.6832178,2.6832178 0 1 1 85.231623,108.67079 A 2.6832178,2.6832178 0 1 1 90.598058,108.67079 z" transform="matrix(0.6244305,0,0,0.6244305,385.07386,856.64722)"/>
    <path sodipodi:type="arc" style="opacity:1;fill:#000080;fill-opacity:1;fill-rule:evenodd;stroke:none;stroke-width:2;stroke-linecap:round;stroke-linejoin:miter;stroke-miterlimit:4;stroke-dasharray:none;stroke-dashoffset:4.4;stroke-opacity:1" id="path3669" sodipodi:cx="87.914841" sodipodi:cy="108.67079" sodipodi:rx="2.6832178" sodipodi:ry="2.6832178" d="M 90.598058,108.67079 A 2.6832178,2.6832178 0 1 1 85.231623,108.67079 A 2.6832178,2.6832178 0 1 1 90.598058,108.67079 z" transform="matrix(0.6244305,0,0,0.6244305,408.21149,741.75696)"/>
    <path sodipodi:type="arc" style="opacity:1;fill:#000080;fill-opacity:1;fill-rule:evenodd;stroke:none;stroke-width:2;stroke-linecap:round;stroke-linejoin:miter;stroke-miterlimit:4;stroke-dasharray:none;stroke-dashoffset:4.4;stroke-opacity:1" id="path3671" sodipodi:cx="87.914841" sodipodi:cy="108.67079" sodipodi:rx="2.6832178" sodipodi:ry="2.6832178" d="M 90.598058,108.67079 A 2.6832178,2.6832178 0 1 1 85.231623,108.67079 A 2.6832178,2.6832178 0 1 1 90.598058,108.67079 z" transform="matrix(0.6244305,0,0,0.6244305,364.32979,792.8193)"/>
    <path sodipodi:type="arc" style="opacity:1;fill:#000080;fill-opacity:1;fill-rule:evenodd;stroke:none;stroke-width:2;stroke-linecap:round;stroke-linejoin:miter;stroke-miterlimit:4;stroke-dasharray:none;stroke-dashoffset:4.4;stroke-opacity:1" id="path3673" sodipodi:cx="87.914841" sodipodi:cy="108.67079" sodipodi:rx="2.6832178" sodipodi:ry="2.6832178" d="M 90.598058,108.67079 A 2.6832178,2.6832178 0 1 1 85.231623,108.67079 A 2.6832178,2.6832178 0 1 1 90.598058,108.67079 z" transform="matrix(0.6244305,0,0,0.6244305,367.52118,827.1268)"/>
    <path sodipodi:type="arc" style="opacity:1;fill:#000080;fill-opacity:1;fill-rule:evenodd;stroke:none;stroke-width:2;stroke-linecap:round;stroke-linejoin:miter;stroke-miterlimit:4;stroke-dasharray:none;stroke-dashoffset:4.4;stroke-opacity:1" id="path3675" sodipodi:cx="87.914841" sodipodi:cy="108.67079" sodipodi:rx="2.6832178" sodipodi:ry="2.6832178" d="M 90.598058,108.67079 A 2.6832178,2.6832178 0 1 1 85.231623,108.67079 A 2.6832178,2.6832178 0 1 1 90.598058,108.67079 z" transform="matrix(0.6244305,0,0,0.6244305,335.60723,803.98919)"/>
    <path sodipodi:type="arc" style="opacity:1;fill:#000080;fill-opacity:1;fill-rule:evenodd;stroke:none;stroke-width:2;stroke-linecap:round;stroke-linejoin:miter;stroke-miterlimit:4;stroke-dasharray:none;stroke-dashoffset:4.4;stroke-opacity:1" id="path3677" sodipodi:cx="87.914841" sodipodi:cy="108.67079" sodipodi:rx="2.6832178" sodipodi:ry="2.6832178" d="M 90.598058,108.67079 A 2.6832178,2.6832178 0 1 1 85.231623,108.67079 A 2.6832178,2.6832178 0 1 1 90.598058,108.67079 z" transform="matrix(0.6244305,0,0,0.6244305,401.82869,819.14832)"/>
    <path sodipodi:type="arc" style="opacity:1;fill:#000080;fill-opacity:1;fill-rule:evenodd;stroke:none;stroke-width:2;stroke-linecap:round;stroke-linejoin:miter;stroke-miterlimit:4;stroke-dasharray:none;stroke-dashoffset:4.4;stroke-opacity:1" id="path3679" sodipodi:cx="87.914841" sodipodi:cy="108.67079" sodipodi:rx="2.6832178" sodipodi:ry="2.6832178" d="M 90.598058,108.67079 A 2.6832178,2.6832178 0 1 1 85.231623,108.67079 A 2.6832178,2.6832178 0 1 1 90.598058,108.67079 z" transform="matrix(0.6244305,0,0,0.6244305,310.8739,818.35047)"/>
    <path sodipodi:type="arc" style="opacity:1;fill:#000080;fill-opacity:1;fill-rule:evenodd;stroke:none;stroke-width:2;stroke-linecap:round;stroke-linejoin:miter;stroke-miterlimit:4;stroke-dasharray:none;stroke-dashoffset:4.4;stroke-opacity:1" id="path3681" sodipodi:cx="87.914841" sodipodi:cy="108.67079" sodipodi:rx="2.6832178" sodipodi:ry="2.6832178" d="M 90.598058,108.67079 A 2.6832178,2.6832178 0 1 1 85.231623,108.67079 A 2.6832178,2.6832178 0 1 1 90.598058,108.67079 z" transform="matrix(0.6244305,0,0,0.6244305,270.18361,849.46658)"/>
    <path sodipodi:type="arc" style="opacity:1;fill:#000080;fill-opacity:1;fill-rule:evenodd;stroke:none;stroke-width:2;stroke-linecap:round;stroke-linejoin:miter;stroke-miterlimit:4;stroke-dasharray:none;stroke-dashoffset:4.4;stroke-opacity:1" id="path3683" sodipodi:cx="87.914841" sodipodi:cy="108.67079" sodipodi:rx="2.6832178" sodipodi:ry="2.6832178" d="M 90.598058,108.67079 A 2.6832178,2.6832178 0 1 1 85.231623,108.67079 A 2.6832178,2.6832178 0 1 1 90.598058,108.67079 z" transform="matrix(0.6244305,0,0,0.6244305,251.83308,780.05372)"/>
    <path sodipodi:type="arc" style="opacity:1;fill:#000080;fill-opacity:1;fill-rule:evenodd;stroke:none;stroke-width:2;stroke-linecap:round;stroke-linejoin:miter;stroke-miterlimit:4;stroke-dasharray:none;stroke-dashoffset:4.4;stroke-opacity:1" id="path3685" sodipodi:cx="87.914841" sodipodi:cy="108.67079" sodipodi:rx="2.6832178" sodipodi:ry="2.6832178" d="M 90.598058,108.67079 A 2.6832178,2.6832178 0 1 1 85.231623,108.67079 A 2.6832178,2.6832178 0 1 1 90.598058,108.67079 z" transform="matrix(0.6244305,0,0,0.6244305,252.63092,813.56338)"/>
    <path sodipodi:type="arc" style="opacity:1;fill:#000080;fill-opacity:1;fill-rule:evenodd;stroke:none;stroke-width:2;stroke-linecap:round;stroke-linejoin:miter;stroke-miterlimit:4;stroke-dasharray:none;stroke-dashoffset:4.4;stroke-opacity:1" id="path3687" sodipodi:cx="87.914841" sodipodi:cy="108.67079" sodipodi:rx="2.6832178" sodipodi:ry="2.6832178" d="M 90.598058,108.67079 A 2.6832178,2.6832178 0 1 1 85.231623,108.67079 A 2.6832178,2.6832178 0 1 1 90.598058,108.67079 z" transform="matrix(0.6244305,0,0,0.6244305,273.375,822.33971)"/>
    <path sodipodi:type="arc" style="opacity:1;fill:#000080;fill-opacity:1;fill-rule:evenodd;stroke:none;stroke-width:2;stroke-linecap:round;stroke-linejoin:miter;stroke-miterlimit:4;stroke-dasharray:none;stroke-dashoffset:4.4;stroke-opacity:1" id="path3689" sodipodi:cx="87.914841" sodipodi:cy="108.67079" sodipodi:rx="2.6832178" sodipodi:ry="2.6832178" d="M 90.598058,108.67079 A 2.6832178,2.6832178 0 1 1 85.231623,108.67079 A 2.6832178,2.6832178 0 1 1 90.598058,108.67079 z" transform="matrix(0.6244305,0,0,0.6244305,398.68191,951.08095)"/>
    <path sodipodi:type="arc" style="opacity:1;fill:#000080;fill-opacity:1;fill-rule:evenodd;stroke:none;stroke-width:2;stroke-linecap:round;stroke-linejoin:miter;stroke-miterlimit:4;stroke-dasharray:none;stroke-dashoffset:4.4;stroke-opacity:1" id="path3691" sodipodi:cx="87.914841" sodipodi:cy="108.67079" sodipodi:rx="2.6832178" sodipodi:ry="2.6832178" d="M 90.598058,108.67079 A 2.6832178,2.6832178 0 1 1 85.231623,108.67079 A 2.6832178,2.6832178 0 1 1 90.598058,108.67079 z" transform="matrix(0.6244305,0,0,0.6244305,370.47368,919.48774)"/>
    <path sodipodi:type="arc" style="opacity:1;fill:#000080;fill-opacity:1;fill-rule:evenodd;stroke:none;stroke-width:2;stroke-linecap:round;stroke-linejoin:miter;stroke-miterlimit:4;stroke-dasharray:none;stroke-dashoffset:4.4;stroke-opacity:1" id="path3693" sodipodi:cx="87.914841" sodipodi:cy="108.67079" sodipodi:rx="2.6832178" sodipodi:ry="2.6832178" d="M 90.598058,108.67079 A 2.6832178,2.6832178 0 1 1 85.231623,108.67079 A 2.6832178,2.6832178 0 1 1 90.598058,108.67079 z" transform="matrix(0.6244305,0,0,0.6244305,428.01846,942.05431)"/>
    <path sodipodi:type="arc" style="opacity:1;fill:#000080;fill-opacity:1;fill-rule:evenodd;stroke:none;stroke-width:2;stroke-linecap:round;stroke-linejoin:miter;stroke-miterlimit:4;stroke-dasharray:none;stroke-dashoffset:4.4;stroke-opacity:1" id="path3695" sodipodi:cx="87.914841" sodipodi:cy="108.67079" sodipodi:rx="2.6832178" sodipodi:ry="2.6832178" d="M 90.598058,108.67079 A 2.6832178,2.6832178 0 1 1 85.231623,108.67079 A 2.6832178,2.6832178 0 1 1 90.598058,108.67079 z" transform="matrix(0.6244305,0,0,0.6244305,413.35019,758.13669)"/>
    <path sodipodi:type="arc" style="opacity:1;fill:#000080;fill-opacity:1;fill-rule:evenodd;stroke:none;stroke-width:2;stroke-linecap:round;stroke-linejoin:miter;stroke-miterlimit:4;stroke-dasharray:none;stroke-dashoffset:4.4;stroke-opacity:1" id="path3697" sodipodi:cx="87.914841" sodipodi:cy="108.67079" sodipodi:rx="2.6832178" sodipodi:ry="2.6832178" d="M 90.598058,108.67079 A 2.6832178,2.6832178 0 1 1 85.231623,108.67079 A 2.6832178,2.6832178 0 1 1 90.598058,108.67079 z" transform="matrix(0.6244305,0,0,0.6244305,376.11534,708.49022)"/>
    <path sodipodi:type="arc" style="opacity:1;fill:#000080;fill-opacity:1;fill-rule:evenodd;stroke:none;stroke-width:2;stroke-linecap:round;stroke-linejoin:miter;stroke-miterlimit:4;stroke-dasharray:none;stroke-dashoffset:4.4;stroke-opacity:1" id="path3699" sodipodi:cx="87.914841" sodipodi:cy="108.67079" sodipodi:rx="2.6832178" sodipodi:ry="2.6832178" d="M 90.598058,108.67079 A 2.6832178,2.6832178 0 1 1 85.231623,108.67079 A 2.6832178,2.6832178 0 1 1 90.598058,108.67079 z" transform="matrix(0.6244305,0,0,0.6244305,342.26546,731.0568)"/>
    <path sodipodi:type="arc" style="opacity:1;fill:#000080;fill-opacity:1;fill-rule:evenodd;stroke:none;stroke-width:2;stroke-linecap:round;stroke-linejoin:miter;stroke-miterlimit:4;stroke-dasharray:none;stroke-dashoffset:4.4;stroke-opacity:1" id="path3701" sodipodi:cx="87.914841" sodipodi:cy="108.67079" sodipodi:rx="2.6832178" sodipodi:ry="2.6832178" d="M 90.598058,108.67079 A 2.6832178,2.6832178 0 1 1 85.231623,108.67079 A 2.6832178,2.6832178 0 1 1 90.598058,108.67079 z" transform="matrix(0.6244305,0,0,0.6244305,464.12499,708.49022)"/>
    <path sodipodi:type="arc" style="opacity:1;fill:#000080;fill-opacity:1;fill-rule:evenodd;stroke:none;stroke-width:2;stroke-linecap:round;stroke-linejoin:miter;stroke-miterlimit:4;stroke-dasharray:none;stroke-dashoffset:4.4;stroke-opacity:1" id="path3703" sodipodi:cx="87.914841" sodipodi:cy="108.67079" sodipodi:rx="2.6832178" sodipodi:ry="2.6832178" d="M 90.598058,108.67079 A 2.6832178,2.6832178 0 1 1 85.231623,108.67079 A 2.6832178,2.6832178 0 1 1 90.598058,108.67079 z" transform="matrix(0.6244305,0,0,0.6244305,312.92891,790.85824)"/>
    <g id="g3721">
      <text sodipodi:linespacing="125%" id="text3705" y="847.7193" x="362.14288" style="font-size:14px;font-style:normal;font-variant:normal;font-weight:normal;font-stretch:normal;text-align:start;line-height:125%;writing-mode:lr-tb;text-anchor:start;fill:#000000;fill-opacity:1;stroke:none;stroke-width:1px;stroke-linecap:butt;stroke-linejoin:miter;stroke-opacity:1;font-family:Arial;-inkscape-font-specification:Arial" xml:space="preserve"><tspan y="847.7193" x="362.14288" id="tspan3707" sodipodi:role="line">1</tspan></text>
      <text xml:space="preserve" style="font-size:14px;font-style:normal;font-variant:normal;font-weight:normal;font-stretch:normal;text-align:start;line-height:125%;writing-mode:lr-tb;text-anchor:start;fill:#000000;fill-opacity:1;stroke:none;stroke-width:1px;stroke-linecap:butt;stroke-linejoin:miter;stroke-opacity:1;font-family:Arial;-inkscape-font-specification:Arial" x="362.14288" y="782.36212" id="text3709" sodipodi:linespacing="125%"><tspan sodipodi:role="line" id="tspan3711" x="362.14288" y="782.36212">2</tspan></text>
      <text xml:space="preserve" style="font-size:14px;font-style:normal;font-variant:normal;font-weight:normal;font-stretch:normal;text-align:start;line-height:125%;writing-mode:lr-tb;text-anchor:start;fill:#000000;fill-opacity:1;stroke:none;stroke-width:1px;stroke-linecap:butt;stroke-linejoin:miter;stroke-opacity:1;font-family:Arial;-inkscape-font-specification:Arial" x="357.50003" y="1040.3898" id="text3713" sodipodi:linespacing="125%"><tspan sodipodi:role="line" id="tspan3715" x="357.50003" y="1040.3898">-2</tspan></text>
      <text sodipodi:linespacing="125%" id="text3717" y="975.03253" x="357.50003" style="font-size:14px;font-style:normal;font-variant:normal;font-weight:normal;font-stretch:normal;text-align:start;line-height:125%;writing-mode:lr-tb;text-anchor:start;fill:#000000;fill-opacity:1;stroke:none;stroke-width:1px;stroke-linecap:butt;stroke-linejoin:miter;stroke-opacity:1;font-family:Arial;-inkscape-font-specification:Arial" xml:space="preserve"><tspan y="975.03253" x="357.50003" id="tspan3719" sodipodi:role="line">-1</tspan></text>
    </g>
    <text sodipodi:linespacing="125%" id="text3741" y="924.01923" x="439.07977" style="font-size:14px;font-style:normal;font-variant:normal;font-weight:normal;font-stretch:normal;text-align:start;line-height:125%;writing-mode:lr-tb;text-anchor:start;fill:#000000;fill-opacity:1;stroke:none;stroke-width:1px;stroke-linecap:butt;stroke-linejoin:miter;stroke-opacity:1;font-family:Arial;-inkscape-font-specification:Arial" xml:space="preserve"><tspan y="924.01923" x="439.07977" id="tspan3743" sodipodi:role="line">1</tspan></text>
    <text xml:space="preserve" style="font-size:14px;font-style:normal;font-variant:normal;font-weight:normal;font-stretch:normal;text-align:start;line-height:125%;writing-mode:lr-tb;text-anchor:start;fill:#000000;fill-opacity:1;stroke:none;stroke-width:1px;stroke-linecap:butt;stroke-linejoin:miter;stroke-opacity:1;font-family:Arial;-inkscape-font-specification:Arial" x="504.07806" y="924.01959" id="text3745" sodipodi:linespacing="125%"><tspan sodipodi:role="line" id="tspan3747" x="504.07806" y="924.01959">2</tspan></text>
    <text xml:space="preserve" style="font-size:14px;font-style:normal;font-variant:normal;font-weight:normal;font-stretch:normal;text-align:start;line-height:125%;writing-mode:lr-tb;text-anchor:start;fill:#000000;fill-opacity:1;stroke:none;stroke-width:1px;stroke-linecap:butt;stroke-linejoin:miter;stroke-opacity:1;font-family:Arial;-inkscape-font-specification:Arial" x="243.69542" y="924.01959" id="text3749" sodipodi:linespacing="125%"><tspan sodipodi:role="line" id="tspan3751" x="243.69542" y="924.01959">-2</tspan></text>
    <text sodipodi:linespacing="125%" id="text3753" y="924.01959" x="309.96869" style="font-size:14px;font-style:normal;font-variant:normal;font-weight:normal;font-stretch:normal;text-align:start;line-height:125%;writing-mode:lr-tb;text-anchor:start;fill:#000000;fill-opacity:1;stroke:none;stroke-width:1px;stroke-linecap:butt;stroke-linejoin:miter;stroke-opacity:1;font-family:Arial;-inkscape-font-specification:Arial" xml:space="preserve"><tspan y="924.01959" x="309.96869" id="tspan3755" sodipodi:role="line">-1</tspan></text>
  </g>
</svg>